<?xml version="1.0" encoding="UTF-8" standalone="no"?>
<svg
   width="70"
   height="70"
   viewBox="0 0 70 70"
   version="1.1"
   id="svg8"
   sodipodi:docname="icon.svg"
   inkscape:version="1.3 (0e150ed6c4, 2023-07-21)"
   xmlns:inkscape="http://www.inkscape.org/namespaces/inkscape"
   xmlns:sodipodi="http://sodipodi.sourceforge.net/DTD/sodipodi-0.dtd"
   xmlns:xlink="http://www.w3.org/1999/xlink"
   xmlns="http://www.w3.org/2000/svg"
   xmlns:svg="http://www.w3.org/2000/svg">
  <sodipodi:namedview
     id="namedview8"
     pagecolor="#ffffff"
     bordercolor="#999999"
     borderopacity="1"
     inkscape:showpageshadow="0"
     inkscape:pageopacity="0"
     inkscape:pagecheckerboard="0"
     inkscape:deskcolor="#d1d1d1"
     showgrid="false"
     showguides="true"
     inkscape:zoom="12.071429"
     inkscape:cx="48.710059"
     inkscape:cy="35.497041"
     inkscape:window-width="2560"
     inkscape:window-height="1043"
     inkscape:window-x="0"
     inkscape:window-y="0"
     inkscape:window-maximized="1"
     inkscape:current-layer="svg8">
    <sodipodi:guide
       position="-28,31.25"
       orientation="0,1"
       id="guide33"
       inkscape:locked="false"
       inkscape:label=""
       inkscape:color="rgb(0,134,229)" />
    <sodipodi:guide
       position="19,70"
       orientation="-1,0"
       id="guide35"
       inkscape:locked="false"
       inkscape:label=""
       inkscape:color="rgb(0,134,229)" />
    <sodipodi:guide
       position="51,70"
       orientation="-1,0"
       id="guide36"
       inkscape:locked="false"
       inkscape:label=""
       inkscape:color="rgb(0,134,229)" />
    <sodipodi:guide
       position="-41,29.25"
       orientation="0,1"
       id="guide37"
       inkscape:locked="false"
       inkscape:label=""
       inkscape:color="rgb(0,134,229)" />
  </sodipodi:namedview>
  <defs
     id="defs2">
    <path
       id="a"
       d="M4 0h61c4 0 5 1 5 5v60c0 4-1 5-5 5H4c-3 0-4-1-4-5V5c0-4 1-5 4-5z" />
    <linearGradient
       id="c"
       x1="100%"
       x2="0%"
       y1="0%"
       y2="98.616%">
      <stop
         offset="0%"
         stop-color="#797C79"
         id="stop1" />
      <stop
         offset="100%"
         stop-color="#545554"
         id="stop2" />
    </linearGradient>
    <linearGradient
       inkscape:collect="always"
       xlink:href="#c"
       id="linearGradient14"
       x1="70"
       y1="0"
       x2="0"
       y2="69.031199"
       gradientUnits="userSpaceOnUse" />
  </defs>
  <g
     fill="none"
     fill-rule="evenodd"
     id="g14">
    <mask
       id="mask8"
       fill="#ffffff">
      <use
         xlink:href="#a"
         id="use8" />
    </mask>
    <g
       mask="url(#b)"
       id="g13">
      <path
         fill="url(#c)"
         d="M 0,0 H 70 V 70 H 0 Z"
         id="path8"
         style="fill:url(#linearGradient14)" />
      <path
         fill="#ffffff"
         fill-opacity="0.383"
         d="m 4,1 h 61 c 2.667,0 4.333,0.667 5,2 V 0 H 0 V 3 C 0.667,1.667 2,1 4,1 Z"
         id="path9" />
      <path
         fill="#393939"
         d="M 32.25,69 H 4 C 2,69 0,68 0,65 V 39.181 L 19,20 H 51 V 26.208 41.123 50 Z"
         opacity="0.324"
         id="path10"
         sodipodi:nodetypes="cssccccccc" />
      <path
         fill="#000000"
         fill-opacity="0.383"
         d="m 4,69 h 61 c 2.667,0 4.333,-1 5,-3 v 4 H 0 v -4 c 0.667,2 2,3 4,3 z"
         id="path11" />
    </g>
  </g>
  <path
     id="rect32"
     style="opacity:1;fill:#ffffff;stroke-width:7.23337;stroke-linecap:round;stroke-linejoin:round;paint-order:stroke fill markers"
     d="M 19 20 L 19 50 L 38 50 L 38 38.75 L 46 38.75 L 46 50 L 51 50 L 51 20 L 19 20 z M 25 24 L 31 24 L 31 32 L 25 32 L 25 24 z M 39 24 L 45 24 L 45 32 L 39 32 L 39 24 z " />
  <rect
     style="opacity:0.4;fill:#1a1a1a;stroke-width:10;stroke-linecap:round;stroke-linejoin:round;paint-order:stroke fill markers"
     id="rect37"
     width="32"
     height="2"
     x="19"
     y="50"
     ry="0" />
  <rect
     style="opacity:0.4;fill:#1a1a1a;stroke-width:4.33013;stroke-linecap:round;stroke-linejoin:round;paint-order:stroke fill markers"
     id="rect38"
     width="6"
     height="2"
     x="25"
     y="24"
     ry="0" />
  <rect
     style="opacity:0.4;fill:#1a1a1a;stroke-width:4.33013;stroke-linecap:round;stroke-linejoin:round;paint-order:stroke fill markers"
     id="rect39"
     width="6"
     height="2"
     x="39"
     y="24"
     ry="0" />
  <rect
     style="opacity:0.4;fill:#1a1a1a;stroke-width:5;stroke-linecap:round;stroke-linejoin:round;paint-order:stroke fill markers"
     id="rect40"
     width="8"
     height="2"
     x="38"
     y="38.75"
     ry="0" />
</svg>
